<?xml version="1.0" encoding="utf-8"?>
<!-- Generator: Adobe Illustrator 27.5.0, SVG Export Plug-In . SVG Version: 6.00 Build 0)  -->
<svg version="1.1" id="Layer_1" xmlns="http://www.w3.org/2000/svg" xmlns:xlink="http://www.w3.org/1999/xlink" x="0px" y="0px"
	 viewBox="0 0 4000 4000" style="enable-background:new 0 0 4000 4000;" xml:space="preserve">
<rect style="fill-rule:evenodd;clip-rule:evenodd;fill:#4B0301;" width="4000" height="4000"/>
<path style="fill-rule:evenodd;clip-rule:evenodd;fill:#EAA416;" d="M2383.5,2499.688h133.79c32.445,0,64.224,6.725,93.317,20.543
	c30.224-13.558,62.698-20.543,96.122-20.543h408.773l-50.506,283.212l-26.326,151.062c-9.912,56.889-39.268,106.16-83.374,143.223
	c-43.848,36.844-96.992,57.451-154.446,57.451c-568.209,0-1136.417,0-1704.626,0c-57.908,0-111.957-21.422-152.367-63.246
	c-38.797-40.157-59.365-92.206-59.365-147.971c0-105.848,34.183-294.338,117.446-365.882c43.665-37.521,97.439-57.85,155.077-57.85
	h437.933c-290.91-254.679-458.967-621.443-458.967-1011.834c0-116.049,14.776-231.638,44.367-343.859l2.745-10.403l8.658-6.382
	c231.694-170.889,509.603-261.849,797.473-261.849c287.873,0,565.783,90.964,797.478,261.849l8.657,6.385l2.745,10.403
	c29.592,112.221,44.367,227.808,44.367,343.857C2842.472,1878.245,2674.41,2245.009,2383.5,2499.688"/>
<path style="fill-rule:evenodd;clip-rule:evenodd;fill:#4B0301;" d="M2768.58,1151.783
	c-218.064-160.831-487.608-255.891-779.355-255.891c-291.744,0-561.286,95.053-779.351,255.888
	c-28.289,107.272-43.36,219.914-43.36,336.073c0,424.571,201.344,802.079,513.722,1042.368h-523.221
	c-50.407,0-96.772,18.116-135.18,50.473c-73.2,63.543-106.812,242.219-106.812,342.725c0,47.849,17.49,92.289,50.792,126.756
	c34.658,35.875,80.8,53.929,130.408,53.929c568.351,0,1136.624,0,1704.626,0c50.272,0,96.463-18.077,134.802-50.293
	c38.598-32.436,64.259-75.281,72.94-125.091l26.327-151.063l44.126-247.437h-372.314c-34.509,0-67.128,8.493-96.592,24.234
	c-27.827-16.123-59.522-24.234-92.847-24.234h-219.078c312.38-240.288,513.728-617.797,513.728-1042.368
	C2811.94,1371.694,2796.87,1259.055,2768.58,1151.783"/>
<path style="fill-rule:evenodd;clip-rule:evenodd;fill:#EAA416;" d="M2513.658,1515.114
	c-281.292-365.819-825.045-201.298-989.124,217.589c24.036,34.162,42.506,73.267,52.8,110.172
	c34.796,124.721-4.806,245.664-73.654,348.609c124.028,171.926,291.723,309.043,485.551,395.865
	c389.02-402.004,60.279-438.219,60.279-438.219c-99.194-106.488-122.533-258.198-122.533-258.198
	c30.636-105.028,122.533-140.036,122.533-140.036s119.615,32.091,215.891-110.864c95.107-141.219,244.583-125.404,248.192-125
	L2513.658,1515.114z M2528.1,1534.689c-1.333-1.883-2.67-3.748-4.016-5.603C2525.427,1530.94,2526.768,1532.811,2528.1,1534.689z
	 M1764.59,1620.923c18.936,14.731,35.443,32.754,49.524,53.66c24.491,36.368,54.273,68.735,89.378,93.331
	c-18.536,20.217-45.161,32.893-74.752,32.893c-55.989,0-101.379-45.388-101.379-101.378
	C1727.362,1667.778,1741.864,1639.517,1764.59,1620.923z M1306.682,1217.503c-20.308,88.642-30.435,179.332-30.435,270.353
	c0,215.993,57.619,422.308,160.757,601.359c113.415-209.762-36.439-330.328-36.439-330.328
	c19.692-96.274,96.278-194.741,96.278-194.741c-85.337-78.767-67.833-181.608-67.833-181.608
	c76.582,37.197,155.355,56.887,155.355,56.887c288.119-377.088,959.063-260.811,1112.077,165.997
	c3.791-38.797,5.76-78.012,5.76-117.564c0-91.016-10.124-181.711-30.431-270.348c-200.989-138.506-437.629-211.883-682.548-211.883
	S1507.67,1079.001,1306.682,1217.503z"/>
<path style="fill-rule:evenodd;clip-rule:evenodd;fill:#EAA416;" d="M2366.229,1620.923c-18.933,14.731-35.44,32.754-49.523,53.66
	c-24.491,36.368-54.274,68.735-89.376,93.331c18.534,20.217,45.16,32.893,74.75,32.893c55.992,0,101.378-45.388,101.378-101.378
	C2403.458,1667.778,2388.957,1639.517,2366.229,1620.923"/>
<path style="fill-rule:evenodd;clip-rule:evenodd;fill:#EAA416;" d="M2128.869,1891.226c0,0-5.691,107.941-79.358,200.568
	c-73.67-92.627-79.359-200.568-79.359-200.568c8.034-39.99,67.283-100.649,79.443-100.656
	C2061.756,1790.563,2126.69,1852.784,2128.869,1891.226"/>
<path style="fill-rule:evenodd;clip-rule:evenodd;fill:#DF7C09;" d="M1622.744,1739.029
	c229.989-574.975,775.013-365.527,886.26-229.89c-282.59-358.033-821.291-193.025-984.47,223.563
	c24.036,34.162,42.506,73.267,52.8,110.172c34.796,124.721-4.806,245.664-73.654,348.609
	c124.028,171.926,291.723,309.043,485.551,395.865c33.158-34.263,61.101-65.873,84.48-95.029
	c-236.108-30.3-477.223-312.756-477.223-312.756C1736.53,1987.011,1622.744,1739.029,1622.744,1739.029"/>
<path style="fill-rule:evenodd;clip-rule:evenodd;fill:#DF7C09;" d="M2345.563,1639.254c35.012,32.759,37.084,87.617,4.639,122.92
	c-32.444,35.302-87.276,37.866-122.872,5.74c18.534,20.217,45.16,32.896,74.75,32.896c55.992,0,101.378-45.393,101.378-101.381
	c0-31.649-14.501-59.913-37.226-78.503C2358.987,1626.56,2352.097,1632.68,2345.563,1639.254"/>
<path style="fill-rule:evenodd;clip-rule:evenodd;fill:#DF7C09;" d="M2128.869,1891.226c-1.817-32.086-47.354-80.736-69.435-95.943
	c0,0,54.506,74.121,17.247,158.442c-19.339,43.763-44.502,67.72-64.234,80.641c9.889,19.084,22.069,38.573,37.064,57.427
	C2123.18,1999.17,2128.869,1891.226,2128.869,1891.226"/>
<path style="fill-rule:evenodd;clip-rule:evenodd;fill:#EAA416;" d="M2955.69,2763.853l-26.327,151.061
	c-5.419,31.093-21.328,57.057-45.448,77.327c-23.866,20.05-51.794,31.441-83.065,31.441h-154.911
	c-27.809,0-53.131-9.264-72.569-29.383c-0.732-0.758-1.451-1.522-2.152-2.296l-5.573,31.679h-172.897l42.447-241.28h-39.536
	l-42.349,241.28h-436.795l7.716-44.105l-59.392,78.913l-35.808-89.077l-9.501,54.269h-281.478l-3.532-45.982h-43.246l-19.375,45.982
	h-177.093l4.058-9.578c-14.856,6.241-30.801,9.578-47.729,9.578h-154.911c-27.808,0-53.131-9.264-72.569-29.383
	c-18.801-19.46-28.21-43.868-28.21-70.878c0-3.213,0.116-6.416,0.343-9.621c0.231-3.272,0.491-6.518,0.97-9.763l0.121-0.739
	l27.323-160.389h0.409l4.053-23.518c5.337-30.985,20.967-56.945,44.994-77.192c23.924-20.154,51.989-31.554,83.357-31.554h276.279
	l-26.454,148.356l63.422-148.356h209.204l9.668,131.834h0.272l1.909,26.516l4.509-26.171h0.368l23.242-132.179h155.309
	l43.747,109.372l82.486-109.372h516.314c27.812,0,52.994,9.217,72.716,29.005c6.246,6.267,11.45,13.08,15.638,20.355
	c5.263-6.349,11.183-12.29,17.728-17.806c23.925-20.154,51.99-31.554,83.357-31.554h276.282L2955.69,2763.853z"/>
<g>
	<defs>
		<path id="SVGID_1_" d="M2927.048,2748.187h-315.593l3.961-22.989c3.702-22.217,14.812-41.162,33.324-56.835
			c18.685-15.671,39.094-23.506,61.311-23.506h235.424L2927.048,2748.187z M2898.976,2909.042
			c-3.787,22.304-15.068,41.332-33.754,57.002c-18.512,15.587-38.834,23.423-61.051,23.423H2649.26
			c-19.635,0-35.653-6.283-47.964-18.943c-12.401-12.917-18.6-28.677-18.6-47.105c0-2.409,0.087-4.734,0.258-7.231
			c0.172-2.414,0.345-4.823,0.69-7.147l22.474-131.92h103.417l-18.858,109.013h108.931l5.336-28.415h-46.153l13.864-80.598h149.313
			L2898.976,2909.042z M2587.949,2711.589c0,2.328-0.085,4.567-0.343,6.803c-0.26,2.154-0.605,4.482-0.864,6.806l-4.047,22.989
			h-315.593l18.17-103.33h235.34c19.718,0,35.82,6.286,48.479,18.945C2581.665,2676.459,2587.949,2692.389,2587.949,2711.589z
			 M2540.244,2989.467h-103.417l37.373-212.431h103.415L2540.244,2989.467z M2327.899,2989.467h-102.73l36.595-212.431h103.42
			L2327.899,2989.467z M2238.343,2748.187h-103.16l18.17-103.33h103.419L2238.343,2748.187z M2195.976,2989.467h-102.727
			l36.595-212.431h103.417L2195.976,2989.467z M2106.423,2748.187h-163.006l77.929-103.33h103.42L2106.423,2748.187z
			 M1733.308,2748.187l18.17-103.33h103.42l41.332,103.33H1733.308z M2063.8,2989.467h-103.245l25.228-144.149l-108.496,144.149
			l-57.952-144.149l-25.231,144.149h-102.73l36.596-212.431h373.115L2063.8,2989.467z M1451.988,2748.187l44.176-103.33h154.826
			l7.576,103.33H1451.988z M1573.058,2989.467l-3.528-45.982h-97.647l-19.378,45.982h-102.727l90.068-212.603h76.984h26.436
			l-34.013,80.339h54.505l-6.371-80.512h103.502l15.331,212.776H1573.058z M1377.333,2748.187H1061.74l3.959-22.989
			c3.703-22.217,14.811-41.162,33.326-56.835c18.685-15.671,39.095-23.506,61.311-23.506h235.424L1377.333,2748.187z
			 M1349.26,2909.042c-3.788,22.304-15.068,41.332-33.753,57.002c-18.515,15.587-38.837,23.423-61.053,23.423h-154.909
			c-19.634,0-35.653-6.283-47.964-18.943c-12.402-12.917-18.6-28.677-18.6-47.105c0-2.409,0.085-4.734,0.257-7.231
			c0.172-2.414,0.345-4.823,0.688-7.147l22.476-131.92h103.417l-18.857,109.013h108.931l5.337-28.415h-46.154l13.862-80.598h149.315
			L1349.26,2909.042z"/>
	</defs>
	<clipPath id="SVGID_00000144320247191433358180000012543324131616010915_">
		<use xlink:href="#SVGID_1_"  style="overflow:visible;"/>
	</clipPath>
	
		<linearGradient id="SVGID_00000098912336456404725880000013048358450960580741_" gradientUnits="userSpaceOnUse" x1="1973.4299" y1="3062.0857" x2="2000.4294" y2="2643.5034">
		<stop  offset="0" style="stop-color:#BDC3C7"/>
		<stop  offset="1" style="stop-color:#FEFEFE"/>
	</linearGradient>
	
		<rect x="1032.98" y="2644.857" style="clip-path:url(#SVGID_00000144320247191433358180000012543324131616010915_);fill:url(#SVGID_00000098912336456404725880000013048358450960580741_);" width="1912.495" height="344.61"/>
</g>
<defs>
	<filter id="Adobe_OpacityMaskFilter" filterUnits="userSpaceOnUse" x="1032.98" y="2828.287" width="1880.069" height="161.18">
		<feColorMatrix  type="matrix" values="1 0 0 0 0  0 1 0 0 0  0 0 1 0 0  0 0 0 1 0"/>
	</filter>
</defs>
<mask maskUnits="userSpaceOnUse" x="1032.98" y="2828.287" width="1880.069" height="161.18" id="SVGID_00000049944398573418525590000012400671990097705622_">
	<g style="filter:url(#Adobe_OpacityMaskFilter);">
		
			<linearGradient id="SVGID_00000139255345810102478610000009040301781514002865_" gradientUnits="userSpaceOnUse" x1="1364.1874" y1="1954.5508" x2="1315.1033" y2="3058.5544" gradientTransform="matrix(1 0 0 1 656.6641 -121.6063)">
			<stop  offset="0" style="stop-color:#FFFFFF"/>
			<stop  offset="1" style="stop-color:#000000"/>
		</linearGradient>
		
			<rect x="1032.98" y="2828.287" style="fill:url(#SVGID_00000139255345810102478610000009040301781514002865_);" width="1880.07" height="161.18"/>
	</g>
</mask>
<path style="mask:url(#SVGID_00000049944398573418525590000012400671990097705622_);fill:#3F4346;" d="M2597.4,2828.287h103.283
	l-10.007,57.848h108.931l5.336-28.415h-46.153l5.065-29.433h149.195l-14.074,80.754c-3.787,22.304-15.068,41.332-33.754,57.002
	c-18.512,15.587-38.834,23.423-61.051,23.423H2649.26c-19.635,0-35.653-6.283-47.964-18.943c-12.401-12.917-18.6-28.677-18.6-47.105
	c0-2.409,0.087-4.734,0.258-7.231c0.172-2.414,0.345-4.823,0.69-7.147L2597.4,2828.287z M2465.183,2828.287H2568.6l-28.356,161.18
	h-103.417L2465.183,2828.287z M2252.936,2828.287h103.252l-28.289,161.18h-102.73L2252.936,2828.287z M2121.015,2828.287h103.254
	l-28.293,161.18h-102.727L2121.015,2828.287z M1719.142,2828.287h372.947l-28.289,161.18h-103.245l25.228-144.149l-108.496,144.149
	l-57.952-144.149l-25.231,144.149h-102.73L1719.142,2828.287z M1418.059,2828.287h103.434l-12.241,28.916h54.505l-2.286-28.916
	h103.136l11.612,161.18h-103.163l-3.528-45.982h-97.647l-19.378,45.982h-102.727L1418.059,2828.287z M1349.26,2909.042
	c-3.788,22.304-15.068,41.332-33.753,57.002c-18.515,15.587-38.837,23.423-61.053,23.423h-154.909
	c-19.634,0-35.653-6.283-47.964-18.943c-12.402-12.917-18.6-28.677-18.6-47.105c0-2.409,0.085-4.734,0.257-7.231
	c0.172-2.414,0.345-4.823,0.688-7.147l13.76-80.754h103.282l-10.006,57.848h108.931l5.337-28.415h-46.154l5.065-29.433h149.194
	L1349.26,2909.042z"/>
</svg>
